<?xml version="1.0" encoding="UTF-8" standalone="no"?>
<!DOCTYPE svg PUBLIC "-//W3C//DTD SVG 20010904//EN"
              "http://www.w3.org/TR/2001/REC-SVG-20010904/DTD/svg10.dtd">

<svg xmlns="http://www.w3.org/2000/svg"
     width="89.7063mm" height="69.5951mm"
     viewBox="0 0 339 263">
  <path id="Selection"
        fill="none" stroke="black" stroke-width="1"
        d="M 126.00,56.00
           C 131.39,33.42 167.29,17.33 196.00,34.45
             201.51,37.74 205.45,41.02 209.54,46.00
             211.50,48.39 214.74,53.62 217.18,54.99
             219.43,56.22 231.30,54.96 235.00,54.99
             259.93,55.30 281.31,76.81 284.05,101.00
             284.37,103.80 284.89,106.17 284.68,109.00
             283.66,122.51 278.81,134.36 268.96,143.91
             265.45,147.32 261.26,150.15 257.00,152.56
             254.81,153.80 251.35,155.13 250.02,157.27
             248.79,159.26 249.00,162.70 249.00,165.00
             249.00,165.00 249.00,235.00 249.00,235.00
             249.00,235.00 93.00,235.00 93.00,235.00
             93.00,235.00 93.00,163.00 93.00,163.00
             93.00,160.73 93.22,157.34 91.98,155.39
             90.11,152.46 83.24,150.51 78.00,146.47
             70.95,141.04 65.92,134.07 62.31,126.00
             51.50,101.85 62.44,71.78 86.00,59.97
             97.57,54.17 113.43,53.75 126.00,56.00 Z
           M 202.00,99.00
           C 202.00,99.00 205.54,87.00 205.54,87.00
             207.64,75.34 204.16,62.72 195.70,54.30
             179.82,38.49 146.91,43.17 140.00,64.00
             147.64,69.78 151.36,74.74 156.00,83.00
             153.57,84.05 144.63,88.98 142.67,88.42
             139.79,87.61 138.52,82.51 132.00,77.79
             120.92,69.76 105.29,68.17 93.00,74.38
             69.93,86.02 67.89,119.07 88.00,134.47
             94.21,139.23 101.34,140.93 109.00,141.00
             109.00,141.00 109.00,185.00 109.00,185.00
             109.00,185.00 232.00,185.00 232.00,185.00
             232.00,185.00 232.00,141.00 232.00,141.00
             244.05,140.89 255.19,136.01 262.37,126.00
             273.95,109.85 269.03,85.76 252.00,75.48
             246.49,72.15 240.34,70.92 234.00,70.51
             231.61,70.36 226.61,70.55 225.02,72.59
             223.98,73.94 223.18,85.42 222.84,88.00
             221.72,96.54 219.05,98.80 217.00,106.00
             217.00,106.00 202.00,99.00 202.00,99.00 Z
           M 138.00,134.00
           C 138.00,134.00 153.00,134.00 153.00,134.00
             153.00,134.00 153.00,166.00 153.00,166.00
             153.00,166.00 138.00,166.00 138.00,166.00
             138.00,166.00 138.00,134.00 138.00,134.00 Z
           M 189.00,134.00
           C 189.00,134.00 205.00,134.00 205.00,134.00
             205.00,134.00 205.00,166.00 205.00,166.00
             205.00,166.00 189.00,166.00 189.00,166.00
             189.00,166.00 189.00,134.00 189.00,134.00 Z
           M 232.00,203.00
           C 232.00,203.00 109.00,203.00 109.00,203.00
             109.00,203.00 109.00,220.00 109.00,220.00
             109.00,220.00 232.00,220.00 232.00,220.00
             232.00,220.00 232.00,203.00 232.00,203.00 Z" />
</svg>
