<?xml version="1.0" encoding="UTF-8" standalone="no"?>
<!DOCTYPE svg PUBLIC "-//W3C//DTD SVG 20010904//EN"
              "http://www.w3.org/TR/2001/REC-SVG-20010904/DTD/svg10.dtd">

<svg xmlns="http://www.w3.org/2000/svg"
     width="3.53333in" height="2.74444in"
     viewBox="0 0 318 247">
  <path id="Selection"
        fill="none" stroke="black" stroke-width="1"
        d="M 118.00,51.00
           C 119.76,41.73 126.95,35.12 135.00,30.79
             151.12,22.15 171.67,22.96 187.00,32.87
             202.30,42.75 197.63,50.97 213.00,51.00
             213.00,51.00 220.00,51.00 220.00,51.00
             238.08,51.03 253.51,61.12 262.10,77.00
             271.62,94.59 269.35,117.89 256.08,132.91
             252.90,136.50 249.08,140.00 245.00,142.53
             242.00,144.40 237.79,145.92 236.02,149.10
             234.80,151.30 235.00,154.53 235.00,157.00
             235.00,157.00 235.00,222.00 235.00,222.00
             235.00,222.00 86.00,222.00 86.00,222.00
             86.00,222.00 86.00,156.00 86.00,156.00
             85.97,142.70 80.48,144.97 71.00,137.48
             65.64,133.25 61.21,127.17 58.32,121.00
             47.53,97.93 56.28,66.60 80.00,55.32
             92.02,49.61 105.08,51.00 118.00,51.00 Z
           M 188.09,94.00
           C 192.44,82.13 194.34,70.72 188.09,59.00
             178.98,41.51 153.85,38.14 139.09,50.53
             129.23,58.80 135.78,61.74 141.24,69.00
             145.60,74.25 148.58,78.06 141.24,81.56
             130.53,86.38 131.59,80.01 123.00,73.79
             117.72,69.97 110.48,67.67 104.00,67.18
             99.86,66.87 93.81,68.25 90.00,69.88
             65.70,80.24 64.83,114.05 85.00,126.87
             91.13,130.76 96.06,130.99 103.00,131.00
             103.00,131.00 103.00,173.00 103.00,173.00
             103.00,173.00 217.00,173.00 217.00,173.00
             217.00,173.00 217.00,131.00 217.00,131.00
             224.06,130.99 228.65,130.72 235.00,127.05
             252.66,116.85 256.18,93.56 243.32,78.09
             237.69,71.32 230.45,68.60 222.00,67.43
             219.22,67.04 214.95,66.70 212.74,68.82
             210.65,70.84 210.26,79.85 209.84,83.00
             209.01,89.28 206.06,95.06 204.00,101.00
             204.00,101.00 188.09,94.00 188.09,94.00 Z
           M 130.00,127.00
           C 130.00,127.00 143.00,127.00 143.00,127.00
             143.00,127.00 143.00,155.00 143.00,155.00
             143.00,155.00 130.00,155.00 130.00,155.00
             130.00,155.00 130.00,127.00 130.00,127.00 Z
           M 178.00,127.00
           C 178.00,127.00 191.00,127.00 191.00,127.00
             191.00,127.00 191.00,155.00 191.00,155.00
             191.00,155.00 178.00,155.00 178.00,155.00
             178.00,155.00 178.00,127.00 178.00,127.00 Z
           M 217.00,192.00
           C 217.00,192.00 103.00,192.00 103.00,192.00
             103.00,192.00 103.00,206.00 103.00,206.00
             103.00,206.00 217.00,206.00 217.00,206.00
             217.00,206.00 217.00,192.00 217.00,192.00 Z" />
</svg>
